<?xml version="1.0" encoding="UTF-8" standalone="no"?><!DOCTYPE svg PUBLIC "-//W3C//DTD SVG 1.1//EN" "http://www.w3.org/Graphics/SVG/1.1/DTD/svg11.dtd"><svg width="100%" height="100%" viewBox="0 0 2630 517" version="1.1" xmlns="http://www.w3.org/2000/svg" xmlns:xlink="http://www.w3.org/1999/xlink" xml:space="preserve" xmlns:serif="http://www.serif.com/" style="fill-rule:evenodd;clip-rule:evenodd;stroke-linecap:round;stroke-linejoin:round;stroke-miterlimit:10;"><rect id="Artboard1" x="0" y="0" width="2629.2" height="516.764" style="fill:none;"/><g id="Small-Icon" serif:id="Small Icon"><path d="M278.497,122.365l-104.659,136.551c-1.627,2.122 -1.621,5.074 0.014,7.19l104.66,135.449c2.342,3.032 6.908,3.058 9.286,0.054l107.193,-135.45c1.691,-2.136 1.697,-5.154 0.014,-7.297l-107.193,-136.552c-2.377,-3.028 -6.972,-3.001 -9.315,0.055Z" style="stroke:#000;stroke-width:4.17px;"/><path d="M101.395,267.643l146.916,187.508c4.243,5.416 0.384,13.342 -6.496,13.342l-47.256,-0c-2.536,-0 -4.931,-1.166 -6.496,-3.163l-155.858,-198.913c-2.368,-3.023 -2.339,-7.278 0.071,-10.268l156.944,-194.721c1.566,-1.942 3.928,-3.073 6.425,-3.073l48.981,-0c6.934,-0 10.776,8.033 6.425,13.431l-149.586,185.589c-2.409,2.99 -2.439,7.245 -0.07,10.268Z" style="fill-rule:nonzero;stroke:#000;stroke-width:4.17px;stroke-linecap:butt;stroke-linejoin:miter;"/><path d="M466.501,267.643l-146.916,187.508c-4.243,5.416 -0.384,13.342 6.496,13.342l47.256,-0c2.536,-0 4.931,-1.166 6.496,-3.163l155.858,-198.913c2.368,-3.023 2.339,-7.278 -0.071,-10.268l-156.944,-194.721c-1.565,-1.942 -3.928,-3.073 -6.425,-3.073l-48.981,-0c-6.934,-0 -10.776,8.033 -6.425,13.431l149.586,185.589c2.409,2.99 2.439,7.245 0.07,10.268Z" style="fill-rule:nonzero;stroke:#000;stroke-width:4.17px;stroke-linecap:butt;stroke-linejoin:miter;"/></g><g id="Wordmark"><g transform="matrix(4.16667,0,0,4.16667,-420.298,-2408.47)"><text x="291.918px" y="684.013px" style="font-family:'Futura-Medium', 'Futura', sans-serif;font-weight:500;font-size:114px;">S<tspan x="358.158px " y="684.013px ">W</tspan></text><text x="479.06px" y="684.013px" style="font-family:'Futura-Medium', 'Futura', sans-serif;font-weight:500;font-size:114px;fill-opacity:0;">VR</text><text x="624.789px" y="684.013px" style="font-family:'Futura-Medium', 'Futura', sans-serif;font-weight:500;font-size:114px;">M</text></g><path d="M1993.97,295.006l-0.025,0l-0,146.582l-54.041,0l0,-358.105l63.318,-0c47.315,-0 81.486,8.891 102.515,26.672c23.193,19.792 34.79,45.923 34.79,78.394c-0,25.358 -7.267,47.16 -21.802,65.405c-14.534,18.246 -33.708,29.92 -57.52,35.022l110.865,152.612l-66.101,0l-3.817,-5.47l-108.182,-155.578l-0,14.466Zm-0.025,-47.082l17.163,-0c51.18,-0 76.77,-19.56 76.77,-58.679c-0,-36.646 -24.894,-54.969 -74.683,-54.969l-19.25,0l-0,113.648Z" style="fill-rule:nonzero;"/><g transform="matrix(1,0,0,-1,0,5867.08)"><text x="1554.95px" y="5783.59px" style="font-family:'Futura-Medium', 'Futura', sans-serif;font-weight:500;font-size:475px;">V</text></g></g><g id="Icon"></g></svg>